<svg width="58" height="58" viewBox="0 0 58 58" fill="none" xmlns="http://www.w3.org/2000/svg">
<path d="M55 0H3C1.34315 0 0 1.34315 0 3V55C0 56.6569 1.34315 58 3 58H55C56.6569 58 58 56.6569 58 55V3C58 1.34315 56.6569 0 55 0Z" fill="#ECECEC"/>
<path fill-rule="evenodd" clip-rule="evenodd" d="M18 27.3333C18 30.4629 20.4624 33 23.5 33C25.7186 33 26.4995 31.4708 28.5 31.4708C30.5005 31.4708 31.2814 33 33.5 33C36.5376 33 39 30.4629 39 27.3333C39 24.7375 37.3059 22.5493 34.9947 21.8784C34.9982 21.8082 35 21.7376 35 21.6667C35 18.5371 32.5287 16 28.5 16C24.4713 16 22 18.5371 22 21.6667C22 21.7376 22.0018 21.8082 22.0053 21.8784C19.6941 22.5493 18 24.7375 18 27.3333Z" fill="#BD7575"/>
<path fill-rule="evenodd" clip-rule="evenodd" d="M25.6829 12.6652C29.0591 11.1391 28.6759 9.39529 27.793 7.21009C26.9102 5.02489 24.3966 3.4864 22.3483 4.31395C21.0752 4.82832 20.7133 5.68405 20.5069 7.12461C20.3005 8.56518 20.0414 9.37994 20.3756 10.2069C21.2584 12.3921 22.3066 14.1912 25.6829 12.6652Z" fill="#BD7575"/>
<path fill-rule="evenodd" clip-rule="evenodd" d="M33.3174 12.6652C29.9411 11.1391 30.3243 9.39529 31.2072 7.21009C32.0901 5.02489 34.6037 3.4864 36.6519 4.31395C37.925 4.82832 38.2869 5.68405 38.4934 7.12462C38.6998 8.56518 38.9588 9.37994 38.6247 10.2069C37.7418 12.3921 36.6936 14.1912 33.3174 12.6652Z" fill="#BD7575"/>
<path d="M21.1819 19.682C22.3535 18.5104 21.8786 16.136 20.1213 14.3787C18.3639 12.6213 15.9895 12.1464 14.818 13.318C13.6464 14.4896 14.1213 16.864 15.8786 18.6213C17.636 20.3787 20.0104 20.8535 21.1819 19.682Z" fill="#BD7575"/>
<path d="M36.6559 20.5111C37.7645 21.7424 40.1605 21.3924 42.0074 19.7294C43.8543 18.0664 44.4528 15.7202 43.3442 14.4889C42.2355 13.2576 39.8396 13.6076 37.9926 15.2705C36.1457 16.9335 35.5472 19.2798 36.6559 20.5111Z" fill="#BD7575"/>
<path d="M2.88636 51H1.40909L5.68182 39.3636H7.13636L11.4091 51H9.93182L6.45455 41.2045H6.36364L2.88636 51ZM3.43182 46.4545H9.38636V47.7045H3.43182V46.4545ZM13.2216 51V39.3636H17.2898C18.1004 39.3636 18.7689 39.5038 19.2955 39.7841C19.822 40.0606 20.214 40.4337 20.4716 40.9034C20.7292 41.3693 20.858 41.8864 20.858 42.4545C20.858 42.9545 20.7689 43.3674 20.5909 43.6932C20.4167 44.0189 20.1856 44.2765 19.8977 44.4659C19.6136 44.6553 19.3049 44.7955 18.9716 44.8864V45C19.3277 45.0227 19.6856 45.1477 20.0455 45.375C20.4053 45.6023 20.7064 45.928 20.9489 46.3523C21.1913 46.7765 21.3125 47.2955 21.3125 47.9091C21.3125 48.4924 21.1799 49.017 20.9148 49.483C20.6496 49.9489 20.2311 50.3182 19.6591 50.5909C19.0871 50.8636 18.3428 51 17.4261 51H13.2216ZM14.6307 49.75H17.4261C18.3466 49.75 19 49.572 19.3864 49.2159C19.7765 48.8561 19.9716 48.4205 19.9716 47.9091C19.9716 47.5152 19.8712 47.1515 19.6705 46.8182C19.4697 46.4811 19.1837 46.2121 18.8125 46.0114C18.4413 45.8068 18.0019 45.7045 17.4943 45.7045H14.6307V49.75ZM14.6307 44.4773H17.2443C17.6686 44.4773 18.0511 44.3939 18.392 44.2273C18.7367 44.0606 19.0095 43.8258 19.2102 43.5227C19.4148 43.2197 19.517 42.8636 19.517 42.4545C19.517 41.9432 19.339 41.5095 18.983 41.1534C18.6269 40.7936 18.0625 40.6136 17.2898 40.6136H14.6307V44.4773ZM33.446 45.1818C33.446 46.4091 33.2244 47.4697 32.7812 48.3636C32.3381 49.2576 31.7301 49.947 30.9574 50.4318C30.1847 50.9167 29.3021 51.1591 28.3097 51.1591C27.3172 51.1591 26.4347 50.9167 25.6619 50.4318C24.8892 49.947 24.2813 49.2576 23.8381 48.3636C23.3949 47.4697 23.1733 46.4091 23.1733 45.1818C23.1733 43.9545 23.3949 42.8939 23.8381 42C24.2813 41.1061 24.8892 40.4167 25.6619 39.9318C26.4347 39.447 27.3172 39.2045 28.3097 39.2045C29.3021 39.2045 30.1847 39.447 30.9574 39.9318C31.7301 40.4167 32.3381 41.1061 32.7812 42C33.2244 42.8939 33.446 43.9545 33.446 45.1818ZM32.0824 45.1818C32.0824 44.1742 31.9138 43.3239 31.5767 42.6307C31.2434 41.9375 30.7907 41.4129 30.2188 41.0568C29.6506 40.7008 29.0142 40.5227 28.3097 40.5227C27.6051 40.5227 26.9669 40.7008 26.3949 41.0568C25.8267 41.4129 25.3741 41.9375 25.0369 42.6307C24.7036 43.3239 24.5369 44.1742 24.5369 45.1818C24.5369 46.1894 24.7036 47.0398 25.0369 47.733C25.3741 48.4261 25.8267 48.9508 26.3949 49.3068C26.9669 49.6629 27.6051 49.8409 28.3097 49.8409C29.0142 49.8409 29.6506 49.6629 30.2188 49.3068C30.7907 48.9508 31.2434 48.4261 31.5767 47.733C31.9138 47.0398 32.0824 46.1894 32.0824 45.1818ZM43.4517 39.3636H44.8608V47.0682C44.8608 47.8636 44.6733 48.5739 44.2983 49.1989C43.9271 49.8201 43.4025 50.3106 42.7244 50.6705C42.0464 51.0265 41.2509 51.2045 40.3381 51.2045C39.4252 51.2045 38.6297 51.0265 37.9517 50.6705C37.2737 50.3106 36.7472 49.8201 36.3722 49.1989C36.0009 48.5739 35.8153 47.8636 35.8153 47.0682V39.3636H37.2244V46.9545C37.2244 47.5227 37.3494 48.0284 37.5994 48.4716C37.8494 48.911 38.2055 49.2576 38.6676 49.5114C39.1335 49.7614 39.6903 49.8864 40.3381 49.8864C40.9858 49.8864 41.5426 49.7614 42.0085 49.5114C42.4744 49.2576 42.8305 48.911 43.0767 48.4716C43.3267 48.0284 43.4517 47.5227 43.4517 46.9545V39.3636ZM47.0384 40.6136V39.3636H55.7656V40.6136H52.1065V51H50.6974V40.6136H47.0384Z" fill="#FF78C7"/>
</svg>
