<svg width="49" height="42" viewBox="0 0 49 42" fill="none" xmlns="http://www.w3.org/2000/svg">
<path d="M37.5 40L12 38.5L5.6642 19.0052L5.5 17H46L39.5 38.5L37.5 40Z" fill="#BE8A3B"/>
<path d="M5.5 18.5L5.6642 19.0052M5.6642 19.0052L12 38.5L37.5 40L39.5 38.5L46 17H5.5L5.6642 19.0052Z" stroke="black"/>
<path d="M0.198146 15.7885C4.10915 15.7885 7.82515 15.7885 11.5221 15.7885C14.8851 11.4985 18.1641 7.31653 21.4441 3.13653C22.0031 2.42253 22.5101 1.65453 23.1491 1.01953C24.5541 -0.378465 25.8221 -0.379465 26.8701 1.26953C30.0511 6.27354 35.0241 9.58254 38.7271 14.0785C39.5301 15.0535 40.4751 15.2985 41.6381 15.2365C43.3501 15.1475 45.0711 14.9985 46.7751 15.0955C47.4271 15.1335 48.2091 15.6635 48.6001 16.2075C48.7711 16.4455 48.1471 17.3065 47.8171 17.8415C47.3021 18.6745 46.4781 19.3995 46.2211 20.2955C44.6731 25.7055 43.2081 31.1405 41.8231 36.5935C41.5631 37.6155 41.7861 38.7605 41.7861 40.0015C39.8441 41.1865 37.6381 41.1705 35.4471 41.1715C28.7171 41.1745 21.9861 41.0675 15.2581 41.1795C11.2671 41.2445 10.7921 41.1915 9.56215 37.4025C7.85515 32.1455 6.33315 26.8305 4.74015 21.5375C4.26615 19.9665 3.96615 18.4845 1.60915 18.7015C0.187146 18.8315 -0.319854 17.5345 0.198146 15.7885ZM38.3391 38.1435C40.2261 31.1695 41.9941 24.6365 43.8931 17.6205C31.2701 17.9025 19.1451 18.1745 6.99015 18.4475C6.94515 19.0265 6.83415 19.3405 6.91215 19.5985C8.51515 24.8835 10.0931 30.1775 11.7831 35.4355C12.3801 37.2925 13.6021 38.2535 15.8221 38.2525C22.1431 38.2495 28.4641 38.5465 34.7871 38.6485C35.9481 38.6675 37.1161 38.3265 38.3391 38.1435ZM15.3331 15.0585C15.4851 15.2875 15.6371 15.5155 15.7901 15.7445C22.2351 15.5375 28.6811 15.3305 35.1261 15.1235C35.2211 14.8955 35.3161 14.6685 35.4111 14.4405C32.6771 11.7215 29.9431 9.00253 27.6151 6.68753C25.4221 6.98153 23.7341 7.20853 21.2741 7.53853C19.6201 9.63153 17.4761 12.3445 15.3331 15.0585ZM24.8811 3.68353C24.5541 4.11653 24.2561 4.44153 24.0681 4.82153C24.0311 4.89653 24.5431 5.37153 24.5891 5.34053C24.9481 5.10253 25.2751 4.80253 25.5501 4.47053C25.5781 4.43453 25.2161 4.07253 24.8811 3.68353Z" fill="#231F20"/>
<path d="M14.9631 33.9276C14.8091 30.2706 14.5891 26.6066 14.5601 22.9406C14.5551 22.2566 15.3191 21.5666 16.0751 20.2986C16.5891 21.5966 16.9791 22.1756 17.0331 22.7846C17.3051 25.8746 17.5401 28.9706 17.6841 32.0676C17.7661 33.8396 17.6781 33.8436 14.9631 33.9276Z" fill="#231F20"/>
<path d="M24.432 20.8595C24.432 22.1715 24.394 23.3505 24.441 24.5275C24.529 26.7185 24.67 28.9065 24.782 31.0965C24.807 31.5935 25.008 32.2555 24.769 32.5545C24.326 33.1085 23.659 33.6515 23 33.7865C22.701 33.8485 21.86 32.9335 21.846 32.4465C21.76 29.3375 21.768 26.2195 21.896 23.1115C21.941 22.0545 22.266 20.8775 24.432 20.8595Z" fill="#231F20"/>
<path d="M31.3382 32.1525C29.1382 33.0725 28.7092 32.9005 28.5122 30.7785C28.2802 28.2885 28.1192 25.7905 27.9752 23.2935C27.9482 22.8235 27.9942 22.2115 28.2702 21.8975C28.6242 21.4965 29.2812 21.0755 29.7422 21.1395C30.1642 21.1985 30.6952 21.8365 30.8252 22.3155C31.0302 23.0705 30.9372 23.9055 30.9752 24.7065C31.0892 27.0875 31.2062 29.4685 31.3382 32.1525Z" fill="#231F20"/>
<path d="M35.1172 33.3106C35.1172 29.6816 35.0792 26.2126 35.1632 22.7476C35.1742 22.2886 35.8092 21.8456 36.2302 21.2986C37.5972 21.8326 37.7062 22.9206 37.7122 23.9826C37.7252 26.3786 37.6602 28.7736 37.6372 31.1696C37.6252 32.4146 37.2212 33.2926 35.1172 33.3106Z" fill="#231F20"/>
</svg>
