<svg width="376" height="346" viewBox="0 0 376 346" fill="none" xmlns="http://www.w3.org/2000/svg">
<g filter="url(#filter0_d_226_113)">
<path d="M57.864 105.231L37.1983 115.247L24.1241 124.102L19.6572 137.66L12.0996 158.508L21.4371 170.088L51.4357 162.231L59.7792 170.088L78.6563 179.663L85.0779 201.182L64.2923 220.799L57.0068 242.585L59.7786 255.843L74.2002 267.564L89.6353 253.406C89.6353 253.406 86.938 238.48 94.4715 231.824C102.005 225.169 111.832 213.228 111.832 213.228V255.014L114.923 267.67L126.419 269.947L133.371 260.822L140.886 196.544L152.539 197.99L183.366 200.712L205.008 190.284L210.857 213.228L229.877 231.824L225.814 255.476L231.857 266.761L244.919 259.318L257.248 238.848V220.8L235.928 200.667L275.292 227.257L289.548 236.108L293.231 265.406L303.086 270.234L312.427 263.097L308.413 218.159L299.555 211.307L281.64 182.953L283.069 161.54L280.011 134.979C260.933 125.408 241.03 120.521 220.185 120.978L176.599 120.71L138.438 123.336L113.533 116.415L78.4336 115.248L69.7852 108.369L57.864 105.231Z" fill="#F4AA41"/>
<path d="M277.076 160.586C277.076 160.586 290.948 206.429 312.445 218.997C333.941 231.565 344.109 233.729 356.129 231.669C366.186 229.945 364.912 218.997 364.912 218.997H353.355L319.608 203.029L310.887 186.829L306.894 172.742L300.885 152.823L281.67 136.928L270.373 131.328L277.076 160.586Z" fill="#F4AA41"/>
<path d="M268.008 223.09L245.148 204.99L256.972 239.085L268.008 223.09Z" fill="#F4AA41"/>
<path d="M74.8364 117.788H107.52C111.456 117.788 115.345 118.564 118.927 120.063L123.708 122.064C130.871 125.064 138.786 126.202 146.597 125.313C175.209 122.058 245.039 120.543 271.389 131.59C307.587 146.765 305.248 167.036 309.763 177.942C314.278 188.846 325.212 221.221 360.244 219.269" stroke="black" stroke-width="9" stroke-miterlimit="10" stroke-linecap="round" stroke-linejoin="round"/>
<path d="M94.9429 168.807C97.1169 179.14 102.544 191.284 113.848 204.596V258.185C113.848 263.493 118.524 267.796 124.292 267.796H125.28C130.954 267.796 135.592 263.647 135.721 258.427C136.192 239.355 143.44 185.342 148.636 177.521C148.636 177.521 145.309 165.206 142.108 157.097" stroke="black" stroke-width="9" stroke-miterlimit="10" stroke-linecap="round" stroke-linejoin="round"/>
<path d="M63.7141 168.221C65.8813 171.291 72.359 175.268 76.6976 177.125C78.9881 178.105 80.6299 180.038 81.2837 182.283L87.7744 204.569C87.7744 204.569 49.3744 223.66 64.5303 257.314C66.0824 260.761 70.1938 264.164 75.6338 264.94C81.3229 265.752 91.3078 261.717 87.7744 252.106" stroke="black" stroke-width="9" stroke-miterlimit="10" stroke-linecap="round" stroke-linejoin="round"/>
<path d="M146.209 195.516C146.209 195.516 185.684 209.681 219.468 181.351C219.468 181.351 220.007 189.735 252.279 210.593C252.279 210.593 271.863 224.523 292.134 233.24L295.009 260.417C295.483 264.888 301.167 267.797 306.05 267.797C311.574 267.797 315.93 263.469 315.507 258.399L312.295 219.961C312.074 217.309 309.994 215.37 307.319 214.363C300.408 211.76 289.473 194.34 282.347 179.623L280.171 163.688" stroke="black" stroke-width="9" stroke-miterlimit="10" stroke-linecap="round" stroke-linejoin="round"/>
<path d="M201.406 192.622C201.406 192.622 208.466 212.446 234.15 233.685L229.594 253.262C228.288 258.873 232.936 264.165 239.173 264.165C243.012 264.165 246.487 262.118 248.078 258.903C251.247 252.502 255.111 241.984 258.629 237.09" stroke="black" stroke-width="9" stroke-miterlimit="10" stroke-linecap="round" stroke-linejoin="round"/>
<path d="M72.1968 125.26C81.2579 111.971 63.4485 103.034 52.5926 111.293C44.6099 117.366 40.16 117.174 40.16 117.174C20.2064 122.309 21.6086 136.011 21.6086 136.011L12.7387 158.331C12.2462 159.943 12.8624 161.669 14.2975 162.7L23.0197 168.958C25.6846 170.869 29.2237 171.293 32.3497 170.112C41.1209 166.798 60.2348 157.21 60.2348 142.973" stroke="black" stroke-width="9" stroke-miterlimit="10" stroke-linecap="round" stroke-linejoin="round"/>
<path d="M113.848 212.446C113.848 212.446 98.4777 220.088 91.3081 230.412" stroke="black" stroke-width="9" stroke-miterlimit="10" stroke-linecap="round" stroke-linejoin="round"/>
<path d="M256.827 171.514C252.501 171.514 248.994 168.286 248.994 164.305C248.994 160.324 252.501 157.097 256.827 157.097C258.584 157.097 260.207 157.629 261.514 158.529" stroke="black" stroke-width="9" stroke-miterlimit="10" stroke-linecap="round" stroke-linejoin="round"/>
<path d="M167.825 155.044C163.498 155.044 159.991 151.817 159.991 147.836C159.991 143.855 163.498 140.627 167.825 140.627C169.582 140.627 171.204 141.16 172.511 142.059" stroke="black" stroke-width="9" stroke-miterlimit="10" stroke-linecap="round" stroke-linejoin="round"/>
<path d="M211.417 157.993C208.034 155.512 207.477 150.977 210.174 147.864C212.871 144.75 217.799 144.238 221.182 146.72C222.556 147.728 223.464 149.075 223.877 150.528" stroke="black" stroke-width="9" stroke-miterlimit="10" stroke-linecap="round" stroke-linejoin="round"/>
<path d="M91.4643 154.258C88.0813 151.777 87.5246 147.242 90.2214 144.129C92.9182 141.016 97.8464 140.503 101.229 142.985C102.604 143.993 103.511 145.34 103.925 146.793" stroke="black" stroke-width="9" stroke-miterlimit="10" stroke-linecap="round" stroke-linejoin="round"/>
<path d="M179.617 170.97C182.457 167.967 187.405 167.65 190.668 170.264C193.932 172.877 194.275 177.431 191.435 180.434C190.281 181.654 188.78 182.43 187.184 182.747" stroke="black" stroke-width="9" stroke-miterlimit="10" stroke-linecap="round" stroke-linejoin="round"/>
<path d="M114.918 166.863C117.758 163.86 122.706 163.544 125.97 166.157C129.233 168.771 129.577 173.324 126.736 176.327C125.583 177.547 124.081 178.324 122.485 178.64" stroke="black" stroke-width="9" stroke-miterlimit="10" stroke-linecap="round" stroke-linejoin="round"/>
<path d="M38.2306 141.431C41.0604 141.431 43.3543 139.169 43.3543 136.38C43.3543 133.59 41.0604 131.328 38.2306 131.328C35.4009 131.328 33.1069 133.59 33.1069 136.38C33.1069 139.169 35.4009 141.431 38.2306 141.431Z" fill="black"/>
<path d="M258.934 236.834C258.934 235.389 259.699 234.403 260.534 233.308C261.727 231.743 262.745 229.688 264.068 228.275C265.595 226.644 267.661 224.903 268.62 222.855" stroke="black" stroke-width="9" stroke-linecap="round"/>
<path d="M312.86 218.382C313.624 218.382 314.459 218.282 315.216 218.397C316.274 218.559 317.276 219.608 318.227 220.059C321.162 221.452 323.912 223.616 326.895 224.952C330.94 226.763 334.95 228.306 339.096 229.782C341.843 230.76 344.508 231.21 347.357 231.739C349.317 232.103 351.461 232.081 353.451 232.081C356.248 232.081 360.201 232.395 362.598 230.403C364.153 229.112 366.001 226.891 366.001 224.657C366.001 223.708 366.203 221.639 364.954 221.457C363.869 221.299 362.787 220.797 361.813 220.277C360.758 219.713 358.558 218.382 357.363 218.382" stroke="black" stroke-width="9" stroke-linecap="round"/>
<path d="M62.2187 168.962C61.0252 168.82 60.3916 167.218 59.5084 166.451C58.4937 165.569 57.7238 164.579 56.7818 163.626C55.4188 162.247 54.1514 159.475 52.5205 158.604" stroke="black" stroke-width="9" stroke-linecap="round"/>
<path d="M87.0352 250.642C86.8981 248.007 86.585 245.388 86.585 242.708C86.585 241.056 87.4855 239.773 87.4855 238.14C87.4855 236.411 88.8482 234.374 89.5617 232.85C90.1277 231.641 91.5084 229.86 92.6635 229.243" stroke="black" stroke-width="9" stroke-linecap="round"/>
</g>
<defs>
<filter id="filter0_d_226_113" x="-4" y="0" width="384" height="354" filterUnits="userSpaceOnUse" color-interpolation-filters="sRGB">
<feFlood flood-opacity="0" result="BackgroundImageFix"/>
<feColorMatrix in="SourceAlpha" type="matrix" values="0 0 0 0 0 0 0 0 0 0 0 0 0 0 0 0 0 0 127 0" result="hardAlpha"/>
<feOffset dy="4"/>
<feGaussianBlur stdDeviation="2"/>
<feComposite in2="hardAlpha" operator="out"/>
<feColorMatrix type="matrix" values="0 0 0 0 0 0 0 0 0 0 0 0 0 0 0 0 0 0 0.25 0"/>
<feBlend mode="normal" in2="BackgroundImageFix" result="effect1_dropShadow_226_113"/>
<feBlend mode="normal" in="SourceGraphic" in2="effect1_dropShadow_226_113" result="shape"/>
</filter>
</defs>
</svg>
