<svg width="376" height="376" viewBox="0 0 376 376" fill="none" xmlns="http://www.w3.org/2000/svg">
<path d="M362.441 178.024L373.926 196.93C376.797 201.689 375.625 208.055 371.348 211.27C364.375 213.44 354.485 219.586 349.432 211.212C336.658 190.184 328.748 184.905 319.255 177.06L342.753 281.489L319.255 375.5H288.003H266.125C266.125 350.553 281.829 357.416 283.582 356.562L283.73 356.403C289.041 338.309 319.255 323.417 302.941 281.489C304.117 269.614 283.73 271.333 277.586 253.728C271.443 236.122 240.656 267.865 228.121 271.333C203.625 286.958 179.228 289.389 156.452 264.145C143.704 274.911 149.374 315.224 150.499 344.25C151.185 361.981 146.035 375.5 146.035 375.5H112.997H94.25C94.25 349.458 112.997 356.403 112.997 356.403L123.414 307.372L112.997 237.507L83.8334 155.882L59.0302 190.306C55.5136 194.165 50.7677 196.351 45.7865 196.351H27.6221C20.532 196.351 14.0278 191.914 10.8636 184.969L2.48429 166.577C-0.679878 159.632 -0.0352913 151.272 4.24221 145.034L47.9552 81.1781C48.9511 79.6989 50.4156 78.7989 51.7052 77.7062C49.3615 76.2906 47.0177 75.0052 45.0834 72.8833C35.4741 62.3364 34.3021 14.7527 41.5095 2.79174C43.15 0.090906 46.6657 -0.294927 48.775 2.02007C74.2813 29.9458 73.4167 77.7062 102.919 82.4L150.499 134.617H288.551C318.318 134.617 345.917 150.822 362.441 178.024Z" fill="#EFEFEF"/>
</svg>
