<svg width="429" height="297" viewBox="0 0 429 297" fill="none" xmlns="http://www.w3.org/2000/svg">
<path d="M66.0503 38.1055L130.05 17.1055H252.55L274.05 8.60553L313.05 17.1055L370.55 28.1055L406.55 61.1055L426.05 149.106L406.55 277.106H378.55L382.05 257.106L370.55 149.106L336.05 170.606L323.05 133.106L313.05 149.106V285.106H265.55L252.55 203.106L218.55 192.106L161.05 203.106L104.05 192.106L82.5503 285.106H32.0503V170.606L9.05029 203.106V133.106L32.0503 75.6055L66.0503 38.1055Z" fill="#7CAFCC" stroke="black"/>
<path d="M365.655 110.092C371.23 110.092 375.75 105.572 375.75 99.9961C375.75 94.4202 371.23 89.9001 365.655 89.9001C360.079 89.9001 355.559 94.4202 355.559 99.9961C355.559 105.572 360.079 110.092 365.655 110.092Z" fill="black"/>
<path d="M363.741 17.3623L362.524 16.8642H316.171C309.475 10.5479 288.39 -6.70798 266.802 2.79705C262.093 4.86698 257.342 9.29238 252.722 14.9981C233.594 10.4379 154.137 -5.73536 83.3096 20.7333C5.87711 49.6666 -1.90656 152.825 0.312898 176.816C0.718382 181.17 4.94738 224.386 4.94738 224.386C5.26176 227.627 7.86732 230.173 11.1136 230.415C14.321 230.625 17.3193 228.53 18.1177 225.375C20.01 217.873 24.1599 203.027 29.0371 189.071L26.8506 290.364C26.811 292.164 27.5047 293.905 28.7616 295.195C30.0251 296.484 31.7532 297.211 33.5537 297.211H82.2103C85.3654 297.211 88.095 295.012 88.7626 291.928L108.106 202.7C124.844 209.409 165.586 221.605 208.948 203.708C221.104 198.68 234.084 201.024 241.56 205.56C245.435 207.917 247.798 210.79 248.034 213.455C251.019 247.016 258.324 291.162 258.397 291.607C258.933 294.842 261.728 297.211 265.008 297.211H312.552C315.746 297.211 318.501 294.953 319.123 291.817C319.356 290.66 321.341 276.757 320.989 147.47C323.331 149.917 326.732 156.712 328.615 164.209L329.63 168.261L333.701 169.138C337.131 169.878 354.629 173.066 361.562 162.991C362.497 161.63 364.147 160.831 365.816 160.373C368.926 175.808 376.604 221.565 371.61 277.429L370.955 284.728H408.032L409.989 281.5C410.683 280.368 426.884 252.528 429.045 150.724C431.27 46.1381 366.497 18.4877 363.741 17.3623ZM306.339 283.805H270.716C268.674 270.922 263.705 238.31 261.387 212.263C260.759 205.207 256.184 198.752 248.511 194.098C235.871 186.433 218.341 185.339 203.835 191.309C154.302 211.753 106.889 187.519 106.417 187.27C104.578 186.309 102.372 186.256 100.467 187.14C98.5753 188.03 97.2005 189.745 96.7554 191.787L76.8029 283.805H40.4009L43.1371 156.988C43.1961 154.069 41.3628 151.444 38.6004 150.502C35.8381 149.565 32.7875 150.508 31.0467 152.858C25.3188 160.595 19.571 175.082 14.9431 188.822C14.3083 182.243 13.7908 176.954 13.6668 175.58C13.5622 174.467 9.71264 62.5427 87.9971 33.2882C149.272 10.4085 219.68 21.7347 244.345 26.8995C229.795 50.2116 218.02 81.9596 215.913 87.8034C215.081 89.7413 212.652 96.6475 215.867 105.557C219.762 116.377 230.222 125.647 246.96 133.108C253.356 135.963 259.077 138.627 264.222 141.03C283.59 150.053 296.506 156.057 307.596 153.457C307.791 241.052 306.873 272.883 306.339 283.805ZM399.973 271.322H385.553C390.41 204.035 378.156 153.729 377.612 151.549L376.454 146.888L371.662 146.489C370.202 146.338 357.254 145.592 350.512 155.398C349.753 156.498 345.301 157.08 340.392 156.616C337.996 149.016 332.752 136.486 323.673 133.698C320.957 132.867 315.523 132.232 309.795 137.383C302.72 143.733 294.557 140.381 269.884 128.873C264.681 126.452 258.894 123.754 252.42 120.868C222.432 107.494 227.964 93.7149 228.147 93.2826L228.448 92.5693C238.058 65.8219 258.435 21.1194 272.195 15.0644C289.077 7.64743 308.316 27.9338 308.506 28.1302L310.489 30.2705H359.748C367.741 34.1851 417.517 62.176 415.638 150.436C413.969 229.126 403.79 261.751 399.973 271.322Z" fill="black"/>
</svg>
