<svg width="388" height="297" viewBox="0 0 388 297" fill="none" xmlns="http://www.w3.org/2000/svg">
<path d="M268.319 247.299V258.848H302.889C314.409 258.848 324.839 262.422 332.383 268.197C339.936 273.978 344.605 281.962 344.605 290.78H231.537C211.052 290.78 198.218 273.829 208.39 260.221L210.13 257.897C140.491 309.077 12.6629 276.642 10.4084 276.064C12.5917 276.329 140.562 291.84 140.562 231.217C140.562 171.885 167.944 160.077 211.036 149.26C264.379 135.876 250.95 92.1692 250.71 67.202C250.649 60.8229 253.692 54.8777 258.867 50.3322C263.597 46.1469 270.139 43.1572 277.701 42.1183C282.307 41.4866 287.269 41.2691 292.434 41.493C301.754 41.8805 311.748 43.6938 321.582 47.0304C322.931 47.4858 324.281 47.9812 325.638 48.5044C354.661 59.7759 383.987 86.0279 376.434 99.086C368.526 112.749 323.695 114.529 293.42 104.256C287.181 125.542 314.18 167.243 306.494 203.585C303.005 220.062 292.39 235.429 268.319 247.299Z" fill="#DBB67E"/>
<path d="M326.011 14.6035V47.9556L325.638 48.5061C324.28 47.9829 322.93 47.4869 321.582 47.0321C311.747 43.6961 301.753 41.8822 292.435 41.4947V40.3056C292.434 26.1058 307.47 14.6035 326.011 14.6035Z" fill="#A3875E"/>
<path d="M292.434 40.305V41.4941C287.268 41.2702 282.306 41.4872 277.7 42.1194C270.138 43.1589 263.597 46.1487 258.867 50.3334L258.857 50.3264V31.9211C258.857 17.7283 273.893 6.21899 292.435 6.21899V40.305H292.434Z" fill="#A3875E"/>
<path d="M10.3814 269.838C10.3018 269.838 10.2245 269.846 10.145 269.848C10.1275 269.848 10.1116 269.849 10.0904 269.849C10.0517 269.851 10.0131 269.852 9.97445 269.854C5.67689 270.017 2.25537 272.728 2.25537 276.057C2.25537 282.724 13.3126 283.384 19.5577 284.569C28.656 286.295 37.8157 287.841 47.0375 289.127C65.6456 291.722 84.5462 293.265 103.477 293.079C136.161 292.759 169.253 287.077 197.037 273.898C199.342 287.01 214.283 297 231.537 297H344.605C349.092 297 352.73 294.215 352.73 290.78C352.73 280.588 347.544 271.007 338.128 263.799C328.718 256.596 316.203 252.629 302.889 252.629H276.443V250.614C276.556 250.553 276.667 250.491 276.781 250.43C292.551 241.927 304.769 230.213 310.812 216.119C314.715 207.013 316.188 197.369 315.997 187.811C315.662 171.191 310.864 154.774 306.001 138.651C304.688 134.297 303.556 129.911 302.609 125.501C301.725 121.385 300.634 117.128 300.634 112.949C300.655 113.483 309.982 114.843 310.972 115.005C314.854 115.64 318.776 116.126 322.721 116.465C339.752 117.926 361.03 117.637 375.432 109.431C379.019 107.387 382.042 104.753 383.863 101.606C388.69 93.2597 384.159 81.7684 371.102 69.248C361.239 59.7887 347.716 50.9442 334.136 44.9682V14.6035C334.136 11.1688 330.498 8.38387 326.011 8.38387C316.434 8.38387 307.607 10.8741 300.559 15.0449V6.2196C300.559 2.78496 296.921 0 292.434 0C269.44 0 250.732 14.3198 250.732 31.9211C250.732 31.9211 250.732 48.1645 250.732 48.1668C250.732 49.4923 246.939 52.8045 246.125 54.2095C244.814 56.4723 243.852 58.8524 243.266 61.2858C242.013 66.4932 243.046 71.6083 243.43 76.8464C244.228 87.7438 244.211 98.7142 243.168 109.602C242.368 117.95 238.209 126.626 230.842 132.892C230.528 133.156 230.208 133.417 229.881 133.675C229.789 133.747 229.701 133.821 229.609 133.892C224.449 137.876 217.579 141.073 208.496 143.353C193.01 147.239 177.102 151.74 164.076 159.864C163.966 159.927 163.853 159.985 163.746 160.053C162.715 160.703 161.72 161.379 160.744 162.069C160.59 162.175 160.438 162.282 160.286 162.39C159.978 162.611 159.673 162.834 159.37 163.059C158.994 163.337 158.623 163.62 158.253 163.906C158.121 164.009 157.987 164.11 157.856 164.214C156.273 165.457 154.747 166.77 153.291 168.163C136.614 184.143 132.645 205.745 132.332 225.591C132.236 231.675 132.605 237.527 130.127 243.412C127.776 248.996 123.378 253.879 117.559 257.681C91.9508 274.415 37.1966 273.015 11.7561 269.93C11.3006 269.87 10.8406 269.838 10.3814 269.838ZM317.886 39.2162C317.752 39.1802 317.618 39.1472 317.484 39.1118C317.092 39.0068 316.698 38.9047 316.305 38.8032C316.021 38.7307 315.735 38.6576 315.45 38.5868C315.048 38.4864 314.646 38.3901 314.244 38.2944C313.966 38.2283 313.689 38.1628 313.411 38.0984C312.997 38.0032 312.584 37.9116 312.17 37.8211C311.901 37.7625 311.633 37.7033 311.364 37.6465C310.939 37.5572 310.515 37.4713 310.089 37.386C309.83 37.3344 309.571 37.2816 309.312 37.2317C308.875 37.1476 308.437 37.0676 308.002 36.9881C307.753 36.9434 307.505 36.897 307.257 36.8535C306.809 36.7752 306.36 36.7015 305.912 36.6285C305.674 36.5902 305.436 36.5501 305.198 36.513C304.738 36.4417 304.277 36.3744 303.817 36.3082C303.592 36.2758 303.366 36.2415 303.141 36.2108C302.667 36.1452 302.194 36.0855 301.721 36.0269C301.551 36.006 301.381 35.9817 301.211 35.9608C301.229 35.9005 301.241 35.8384 301.259 35.7786C301.307 35.6255 301.363 35.4753 301.416 35.3233C301.524 35.0141 301.638 34.7067 301.763 34.4033C301.832 34.2391 301.903 34.0767 301.977 33.9143C302.11 33.6207 302.254 33.3307 302.405 33.0442C302.485 32.8928 302.563 32.7408 302.648 32.5905C302.83 32.2663 303.029 31.949 303.233 31.634C303.299 31.5325 303.359 31.4281 303.427 31.3277C303.707 30.917 304.004 30.5156 304.32 30.1229C304.396 30.0289 304.479 29.9396 304.557 29.8468C304.804 29.5503 305.059 29.2574 305.327 28.9714C305.45 28.8397 305.58 28.7115 305.708 28.5822C305.946 28.3403 306.191 28.1019 306.444 27.8687C306.587 27.7382 306.73 27.6082 306.877 27.48C307.141 27.2492 307.414 27.0247 307.692 26.8043C307.834 26.6917 307.973 26.5769 308.119 26.4666C308.471 26.1992 308.837 25.9411 309.209 25.6899C309.287 25.6371 309.361 25.5803 309.44 25.5287C309.894 25.2299 310.363 24.9445 310.844 24.6707C310.984 24.5913 311.129 24.5176 311.271 24.4404C311.62 24.2496 311.974 24.0628 312.337 23.8859C312.521 23.796 312.709 23.7101 312.896 23.6225C313.234 23.4665 313.575 23.3157 313.923 23.1724C314.119 23.0912 314.315 23.0105 314.514 22.9328C314.883 22.7889 315.26 22.6544 315.64 22.5239C315.818 22.4629 315.994 22.398 316.174 22.3405C316.735 22.1596 317.304 21.9902 317.884 21.8405V39.2162H317.886V39.2162ZM266.983 31.9211C266.983 23.3528 274.246 16.0577 284.309 13.4567V35.2798C284.04 35.2914 283.776 35.3094 283.508 35.3239C283.099 35.3459 282.688 35.3645 282.281 35.3911C281.988 35.4103 281.699 35.4364 281.408 35.4584C281.022 35.4874 280.633 35.5135 280.25 35.5483C279.891 35.5803 279.537 35.6197 279.18 35.6557C278.868 35.6876 278.553 35.7154 278.244 35.7502C277.579 35.825 276.919 35.9068 276.264 35.9973C275.548 36.0954 274.838 36.2143 274.133 36.3419C273.936 36.3773 273.741 36.4156 273.545 36.4533C272.975 36.5635 272.409 36.683 271.846 36.8118C271.7 36.8448 271.554 36.875 271.409 36.9092C270.722 37.0728 270.041 37.2515 269.368 37.4423C269.218 37.4846 269.071 37.5311 268.92 37.5746C268.369 37.737 267.822 37.9081 267.28 38.0885C267.181 38.1216 267.079 38.1488 266.982 38.1819V31.9211H266.983ZM148.687 231.217C148.687 230.5 148.693 229.792 148.7 229.087C148.704 228.736 148.711 228.391 148.718 228.045C148.722 227.758 148.728 227.471 148.735 227.186C149.23 206.15 153.607 192.823 159.382 183.909C159.57 183.623 159.756 183.337 159.949 183.056C159.986 183.001 160.025 182.946 160.063 182.89C161.824 180.343 163.798 178.027 165.988 175.928C167.881 174.113 169.928 172.461 172.135 170.932C172.32 170.805 172.505 170.68 172.689 170.556C177.744 167.145 183.66 164.37 190.618 161.875C191.117 161.696 191.618 161.518 192.124 161.342C198.401 159.172 205.495 157.197 213.567 155.171C264.687 142.343 261.61 104.504 259.573 79.4643C259.211 75.0192 258.87 70.82 258.835 67.1562C258.789 62.4721 260.975 57.951 265.011 54.4026C267.744 51.9866 271.248 50.1507 275.135 49.0671C276.43 48.7057 277.768 48.4284 279.134 48.2405C283.158 47.6882 287.477 47.5078 291.994 47.7039C300.582 48.0606 309.676 49.7945 318.306 52.7221C319.406 53.0928 320.603 53.5284 321.966 54.0523C349.647 64.8034 373.631 88.5704 369.006 96.5668C366.665 100.611 356.355 103.703 342.74 104.443C327.259 105.282 310.077 103.096 296.755 98.5831C296.741 98.5785 296.728 98.5744 296.713 98.5698C296.647 98.5472 296.58 98.5321 296.514 98.5112C296.335 98.4543 296.156 98.3981 295.97 98.3511C295.943 98.3441 295.917 98.3377 295.89 98.3319C295.831 98.3174 295.771 98.3082 295.711 98.2948C295.589 98.2676 295.467 98.2415 295.346 98.2182C295.297 98.209 295.249 98.1956 295.191 98.1858C295.142 98.1776 295.092 98.1713 295.043 98.1631C294.974 98.1527 294.905 98.1457 294.836 98.137C294.62 98.108 294.404 98.0831 294.187 98.0668C294.11 98.061 294.033 98.0593 293.956 98.0552C293.747 98.0448 293.54 98.039 293.333 98.0407C293.246 98.0413 293.161 98.0442 293.075 98.0471C292.973 98.0506 292.87 98.0489 292.768 98.0552C292.671 98.0616 292.577 98.075 292.482 98.0831C292.391 98.0912 292.3 98.0999 292.209 98.1104C292.137 98.1185 292.063 98.122 291.992 98.1324C291.87 98.1492 291.751 98.1742 291.631 98.195C291.542 98.2101 291.453 98.224 291.365 98.2414C291.32 98.2507 291.274 98.2565 291.229 98.2664C291.078 98.2989 290.932 98.3406 290.783 98.3795C290.707 98.3992 290.63 98.4161 290.555 98.4381C290.531 98.4451 290.507 98.4503 290.483 98.4572C290.364 98.4926 290.25 98.5355 290.133 98.5756C290.012 98.6168 289.889 98.6539 289.76 98.7038C289.688 98.7316 289.62 98.7653 289.549 98.7948C289.39 98.861 289.231 98.9259 289.077 99.0002C289.06 99.0083 289.043 99.0182 289.028 99.0263C288.962 99.0588 288.901 99.0947 288.837 99.1284C288.665 99.2177 288.496 99.3111 288.333 99.4115C288.264 99.4538 288.199 99.4985 288.132 99.542C287.981 99.6406 287.835 99.7433 287.692 99.8512C287.628 99.9005 287.566 99.9498 287.504 100C287.371 100.109 287.243 100.221 287.119 100.337C287.06 100.393 287 100.45 286.944 100.507C286.824 100.627 286.712 100.752 286.605 100.88C286.558 100.935 286.51 100.989 286.465 101.046C286.358 101.182 286.261 101.323 286.166 101.467C286.131 101.52 286.092 101.572 286.058 101.627C286.038 101.66 286.017 101.692 285.992 101.734C285.962 101.784 285.942 101.836 285.915 101.887C285.878 101.956 285.841 102.027 285.807 102.098C285.783 102.148 285.754 102.196 285.731 102.246C285.723 102.265 285.714 102.284 285.706 102.304C285.64 102.455 285.59 102.608 285.54 102.76C285.526 102.805 285.505 102.848 285.49 102.903C285.477 102.947 285.469 102.992 285.457 103.036C282.316 113.993 286.399 128.186 291.131 144.611C291.628 146.336 292.131 148.082 292.631 149.845C296.666 164.067 300.529 179.446 299.617 194.009C280.617 183.626 276.458 160.675 276.38 160.233C275.82 156.828 271.762 154.414 267.31 154.84C262.859 155.267 259.7 158.376 260.256 161.784C260.496 163.248 266.151 195.633 297.213 207.383C293.782 218.265 286.788 227.376 276.038 234.946C271.967 203.965 237.709 179.699 196.186 179.699C191.699 179.699 188.06 182.484 188.06 185.919C188.06 189.353 191.699 192.138 196.186 192.138C231.479 192.138 260.193 214.121 260.193 241.141V247.295V258.845C260.193 262.279 263.831 265.064 268.318 265.064H302.889C311.862 265.064 320.296 267.737 326.638 272.592C331.022 275.948 334.045 280.068 335.496 284.558H231.538C224.851 284.558 218.855 281.913 215.498 277.484C212.61 273.673 212.199 269.051 214.371 264.974C216.197 261.546 220.23 258.435 217.035 254.602C215.004 252.166 210.57 251.103 207.088 252.217C205.228 252.813 203.735 253.909 202.247 254.95C187.761 265.074 169.632 271.866 150.688 275.764C131.744 279.663 111.966 280.757 92.3555 280.398C95.9111 280.464 100.721 278.652 104.005 277.696C107.982 276.538 111.849 275.161 115.568 273.578C122.438 270.656 128.946 267.113 134.173 262.59C144.197 253.92 148.687 242.68 148.687 231.217Z" fill="black"/>
<path d="M297.777 85.3661C302.264 85.3661 305.902 82.5811 305.902 79.1465C305.902 77.0048 308.178 75.2628 310.976 75.2628C313.772 75.2628 316.049 77.0048 316.049 79.1465C316.049 82.5811 319.687 85.3661 324.174 85.3661C328.661 85.3661 332.299 82.5811 332.299 79.1465C332.299 70.146 322.734 62.8242 310.977 62.8242C299.218 62.8242 289.653 70.1465 289.653 79.1465C289.652 82.5811 293.29 85.3661 297.777 85.3661Z" fill="black"/>
</svg>
