<svg width="245" height="403" viewBox="0 0 245 403" fill="#ce9f12" xmlns="http://www.w3.org/2000/svg">
<path d="M64.5 327L58.5 301H180L172 327H64.5Z" fill="#A94D19" stroke="black"/>
<path d="M88.5 397.5L76 331H162.5L150 397.5H88.5Z" fill="#D56222" stroke="black"/>
<path d="M235.485 174.327L211.936 162.894L197.35 139.538L168.679 147.36L162.561 177.672L171.68 212.791L214.135 210.844L236.538 197.303L235.485 174.327Z" fill="#0B8C56" stroke="black"/>
<path d="M48 167.5L35.5 190.5L11.5 204L18 233L48 240.5L83.5 233V190.5L71 167.5H48Z" fill="#0B8C56" stroke="black"/>
<path d="M160.47 5.4765L108.528 25.7138L51.506 14.8162L21.4627 70.7603L58.7882 123.937L125.765 160.289L184.963 91.323L197.095 36.9142L160.47 5.4765Z" fill="#0B8C56" stroke="black"/>
<path d="M239.631 170.373C234.691 162.992 226.732 159.062 217.489 159.123C217.532 149.878 213.584 141.924 206.191 136.998C196.387 130.465 183.02 131.074 172.925 138.514C165.332 144.108 149.51 161.524 160.483 204.678C156.371 206.084 150.729 208.522 144.952 212.6C141.437 215.082 137.63 218.361 134.054 222.616C133.87 193.462 129.336 171.287 127.174 162.337C205.508 107.994 203.511 60.062 198.921 41.799C193.23 19.156 174.857 2.458 153.202 0.247004C134.979 -1.615 118.363 7.165 107.403 24.02C93.46 9.528 75.479 4.039 57.938 9.298C37.089 15.55 22.191 35.411 20.87 58.72C19.799 77.606 26.948 125.396 115.232 164.098C117.623 173.932 125.162 209.818 120.372 254.13C120.321 254.468 120.267 254.8 120.22 255.143C116.054 248.153 110.597 243.128 105.521 239.614C99.3 235.305 92.979 232.77 88.458 231.344C99.38 188.266 83.577 170.872 75.991 165.282C65.897 157.844 52.528 157.235 42.724 163.766C35.331 168.692 31.384 176.646 31.426 185.89C22.18 185.827 14.215 189.758 9.27299 197.141C2.72 206.929 3.3 220.297 10.716 230.408C14.947 236.177 25.959 246.707 49.879 246.707C58.552 246.707 68.944 245.301 81.303 241.802C87.814 243.254 118.444 253.364 115.059 285.154C114.446 287.729 113.767 290.321 113.055 292.92H56.526C54.742 292.92 53.049 293.715 51.909 295.088C50.77 296.462 50.301 298.272 50.63 300.026L56.282 330.176C56.813 333.014 59.292 335.071 62.178 335.071H69.412L80.769 397.972C81.285 400.828 83.771 402.906 86.673 402.906H149.8C152.702 402.906 155.189 400.829 155.704 397.972L167.061 335.071H174.295C177.182 335.071 179.66 333.014 180.192 330.176L185.846 300.026C186.175 298.272 185.705 296.463 184.566 295.088C183.426 293.715 181.734 292.92 179.949 292.92H125.48C128.939 279.645 131.169 266.713 132.476 254.45C137.744 224.053 161.826 216.444 167.636 215.044C179.981 218.535 190.358 219.939 199.023 219.939C222.94 219.937 233.955 209.408 238.186 203.64C245.604 193.529 246.184 180.161 239.631 170.373ZM76.21 230.771C49.799 237.856 29.066 235.135 20.394 223.311C15.954 217.258 15.492 209.424 19.246 203.818C22.738 198.602 29.153 196.701 36.844 198.597C40.059 199.392 43.313 197.427 44.108 194.209C44.348 193.232 44.333 192.254 44.107 191.341L44.122 191.337C42.241 183.642 44.157 177.232 49.381 173.752C54.997 170.011 62.831 170.489 68.874 174.942C80.677 183.641 83.351 204.379 76.21 230.771ZM144.786 390.904H91.688L81.607 335.069H154.868L144.786 390.904ZM169.316 323.069H67.159L63.757 304.919H172.721L169.316 323.069ZM119.662 152.94C38.629 117.308 31.923 75.751 32.85 59.4C33.887 41.115 45.354 25.6 61.384 20.793C76.641 16.219 92.012 22.498 103.557 38.026C105.535 40.685 109.291 41.237 111.952 39.261C112.762 38.658 113.374 37.889 113.782 37.037L113.817 37.055C122.227 19.632 136.133 10.57 151.984 12.184C168.633 13.884 182.819 26.96 187.283 44.723C191.275 60.607 192.521 102.68 119.662 152.94ZM228.512 196.542C219.841 208.362 199.111 211.084 172.707 204.004C165.565 177.611 168.239 156.873 180.044 148.174C186.088 143.719 193.921 143.243 199.537 146.985C204.761 150.465 206.678 156.875 204.796 164.57L204.8 164.571C204.574 165.485 204.558 166.464 204.799 167.441C205.593 170.658 208.846 172.623 212.062 171.829C219.751 169.933 226.168 171.834 229.66 177.05C233.412 182.655 232.951 190.489 228.512 196.542Z" fill="black"/>
<path d="M53.2 76.055C50.381 76.055 47.867 74.059 47.314 71.188C45.248 60.45 46.73 51.534 51.721 44.688C58.744 35.054 70.124 33.571 70.606 33.512C73.894 33.097 76.885 35.454 77.286 38.745C77.683 42.02 75.363 44.999 72.096 45.42C71.885 45.45 65.192 46.486 61.35 51.852C58.454 55.896 57.696 61.638 59.098 68.921C59.724 72.175 57.594 75.32 54.34 75.946C53.958 76.02 53.575 76.055 53.2 76.055Z" fill="black"/>
</svg>
