<svg width="454" height="379" viewBox="0 0 454 379" fill="none" xmlns="http://www.w3.org/2000/svg">
<path d="M130.224 278.16C135.187 292.906 141.274 307.373 148.449 321.475C148.984 322.52 149.12 323.676 148.841 324.787C148.561 325.898 147.879 326.912 146.887 327.691C145.222 329.028 143.774 330.539 142.576 332.185C141.731 333.365 141.276 334.711 141.259 336.084C141.241 337.458 141.661 338.811 142.476 340.006C143.291 341.201 144.471 342.195 145.898 342.888C147.325 343.58 148.946 343.946 150.598 343.948H220.744C221.682 343.951 222.611 343.799 223.478 343.5C224.344 343.201 225.13 342.762 225.79 342.208C226.45 341.653 226.971 340.995 227.321 340.272C227.672 339.548 227.846 338.774 227.833 337.994C228.072 335.196 227.573 332.388 226.371 329.767C225.169 327.146 223.294 324.774 220.875 322.819C219.825 322.211 218.931 321.434 218.246 320.535C217.561 319.635 217.099 318.631 216.887 317.581C213.59 298.333 209.026 267.941 209.026 267.941C206.882 246.865 190.577 229.859 168.215 229.859C146.122 229.859 128.193 246.652 127.764 266.206C127.811 270.274 128.641 274.309 130.224 278.159L127.723 266.916C127.723 266.677 127.757 266.444 127.762 266.206C127.762 266.073 127.723 265.949 127.723 265.816" fill="#E27022"/>
<path d="M318.944 268.424C314.845 289.987 310.059 312.424 307.221 320.442C306.844 321.533 306.878 322.694 307.319 323.769C307.759 324.843 308.585 325.78 309.685 326.452C311.533 327.61 313.193 328.962 314.623 330.475C315.636 331.56 316.285 332.849 316.504 334.211C316.723 335.572 316.505 336.958 315.872 338.227C315.239 339.495 314.213 340.602 312.899 341.434C311.585 342.266 310.029 342.794 308.39 342.964L238.767 342.919C237.837 343.018 236.892 342.961 235.989 342.752C235.085 342.544 234.241 342.187 233.504 341.704C232.768 341.221 232.155 340.621 231.701 339.939C231.247 339.256 230.96 338.505 230.859 337.73C230.211 334.977 230.293 332.14 231.101 329.416C231.909 326.692 233.422 324.148 235.534 321.962C236.488 321.251 237.261 320.39 237.809 319.427C238.357 318.465 238.668 317.421 238.724 316.358C239.168 296.919 239.233 266.29 239.233 266.29C238.267 245.155 251.948 226.621 274.143 224.348C296.071 222.102 316.333 236.947 319.631 256.311C320.182 260.353 319.95 264.443 318.944 268.424L319.774 257.011C319.739 256.774 319.67 256.547 319.631 256.311C319.612 256.179 319.631 256.052 319.613 255.919" fill="#E27022"/>
<path d="M372.22 122.62C367.742 109.709 352.017 79.3067 298.988 52.5195C296.618 51.332 293.896 50.7205 291.13 50.7545C289.796 48.3284 287.852 46.1687 285.428 44.4214C283.004 42.6741 280.158 41.3799 277.081 40.6261C271.735 39.0006 265.863 39.0379 260.548 40.7311C258.376 41.2308 256.287 41.9532 254.33 42.8817C244.748 47.4829 240.16 55.7948 244.083 61.4467C248.006 67.0986 258.954 67.9509 268.536 63.3476C268.634 63.3004 268.714 63.2427 268.812 63.1902C271.092 63.7658 273.453 64.0882 275.835 64.1491C275.902 66.6007 276.812 68.9851 278.456 71.0205L303.986 102.355C305.183 103.824 306.004 105.483 306.396 107.227C306.788 108.972 306.744 110.765 306.266 112.494L304.866 117.561C304.004 120.683 301.777 123.427 298.619 125.261C295.461 127.094 291.596 127.886 287.776 127.482L268.856 125.486C267.985 125.394 267.106 125.364 266.229 125.395L170.257 128.857C168.464 128.922 166.697 129.244 165.037 129.811L133.389 140.605C129.747 141.848 126.808 144.195 125.166 147.171L82.5641 224.415C81.0525 227.156 80.7415 230.25 81.685 233.162C82.6284 236.074 84.7668 238.619 87.7297 240.357L131.19 265.849C133.831 267.399 136.988 268.224 140.221 268.21C143.453 268.196 146.6 267.343 149.222 265.771L172.763 229.861C172.763 229.861 209.34 229.861 211.408 283.545C212.015 299.279 213.256 320.11 220.095 322.377C220.095 322.377 236.776 328.786 236.978 309.956C237.18 291.125 235.78 264.415 238.012 255.217C248.526 211.826 292.799 227.3 292.799 227.3C293.001 225.127 312.241 237.756 311.2 235.756C306.448 226.629 303.892 196.506 345.829 162.651C346.529 162.093 347.16 161.478 347.711 160.815L370.148 133.539C371.444 131.96 372.302 130.162 372.661 128.273C373.019 126.385 372.868 124.454 372.22 122.62Z" fill="#E27022"/>
<path d="M220.111 226.795C260.256 226.795 292.799 190.516 292.799 145.764C292.799 101.012 260.256 64.7335 220.111 64.7335C179.967 64.7335 147.423 101.012 147.423 145.764C147.423 190.516 179.967 226.795 220.111 226.795Z" fill="#E27022"/>
<path d="M219.324 202.645C246.578 202.645 268.672 176.407 268.672 144.042C268.672 111.677 246.578 85.4393 219.324 85.4393C192.07 85.4393 169.976 111.677 169.976 144.042C169.976 176.407 192.07 202.645 219.324 202.645Z" fill="#F4AA41"/>
<ellipse cx="219" cy="169" rx="31" ry="33" fill="#955113"/>
<path d="M219.031 202.276C235.973 202.276 249.707 186.909 249.707 167.953C249.707 148.997 235.973 133.631 219.031 133.631C202.088 133.631 188.354 148.997 188.354 167.953C188.354 186.909 202.088 202.276 219.031 202.276Z" stroke="black" stroke-width="9" stroke-miterlimit="10"/>
<path d="M203.58 118.484C207.208 118.484 210.149 116.029 210.149 113C210.149 109.972 207.208 107.517 203.58 107.517C199.952 107.517 197.011 109.972 197.011 113C197.011 116.029 199.952 118.484 203.58 118.484Z" fill="black"/>
<path d="M231.602 118.484C235.23 118.484 238.171 116.029 238.171 113C238.171 109.972 235.23 107.517 231.602 107.517C227.974 107.517 225.033 109.972 225.033 113C225.033 116.029 227.974 118.484 231.602 118.484Z" fill="black"/>
<path d="M205.683 176.887C214.398 179.11 223.723 179.034 232.385 176.67" stroke="black" stroke-width="9" stroke-miterlimit="10" stroke-linecap="round"/>
<path d="M122.982 262.326L86.5357 240.872C83.5735 239.128 81.4358 236.573 80.4929 233.651C79.5501 230.729 79.8616 227.624 81.3734 224.873L123.971 147.357C125.612 144.371 128.551 142.016 132.193 140.769L145.393 136.25" stroke="black" stroke-width="9" stroke-miterlimit="10" stroke-linecap="round"/>
<path d="M306.556 236.252C304.969 226.344 320.092 189.84 347.503 159.802C351.878 154.465 363.052 140.83 368.935 133.653C370.215 132.106 371.07 130.342 371.437 128.486C371.805 126.631 371.676 124.73 371.059 122.921C366.677 110.082 351.07 79.3937 297.768 52.3715C295.698 51.0755 293.476 49.9587 291.135 49.0384C287.244 44.9118 281.904 41.9041 275.864 40.4361C270.519 38.8049 264.648 38.8423 259.333 40.5414C257.161 41.0429 255.073 41.7679 253.116 42.6996C243.536 47.3171 238.948 55.6583 242.87 61.3301C246.793 67.0019 257.739 67.8573 267.32 63.2377C267.418 63.1904 267.223 63.2862 267.32 63.2377C268.447 62.612 269.808 62.3489 271.151 62.4973C272.493 62.6457 273.725 63.1955 274.618 64.0447C274.685 66.505 275.595 68.8978 277.239 70.9404L302.766 102.383C303.963 103.857 304.783 105.521 305.175 107.272C305.567 109.023 305.523 110.822 305.045 112.558L303.645 117.643C302.977 120.072 301.483 122.288 299.345 124.027C297.206 125.766 294.512 126.954 291.586 127.448" stroke="black" stroke-width="9" stroke-linecap="round" stroke-linejoin="round"/>
<path d="M218.901 227.262C178.762 227.262 146.224 190.855 146.224 145.945C146.224 101.035 178.76 64.6285 218.901 64.6285C259.043 64.6285 291.579 101.035 291.579 145.945C291.892 165.058 285.514 183.831 273.23 199.961" stroke="black" stroke-width="9" stroke-miterlimit="10" stroke-linecap="round"/>
<path d="M150.803 230.338L139.983 209.841" stroke="black" stroke-width="9" stroke-miterlimit="10" stroke-linecap="round"/>
<path d="M129.026 278.808C134.111 294.02 140.403 308.932 147.861 323.446C148.248 324.15 148.354 324.94 148.163 325.698C147.972 326.456 147.494 327.143 146.8 327.657C145.161 328.847 143.696 330.194 142.434 331.67C141.385 332.925 140.768 334.396 140.651 335.924C140.533 337.451 140.919 338.976 141.767 340.332C142.615 341.689 143.893 342.826 145.461 343.619C147.029 344.412 148.827 344.831 150.66 344.83H214.181C216.296 344.849 218.384 344.435 220.262 343.623C222.14 342.81 223.75 341.625 224.951 340.172C226.151 338.718 226.906 337.041 227.147 335.287C227.389 333.533 227.111 331.756 226.337 330.113C224.808 327.266 222.268 324.879 219.061 323.275C218.221 322.864 217.499 322.305 216.945 321.637C216.39 320.968 216.018 320.207 215.853 319.406C212.545 300.166 207.815 268.557 207.815 268.557C205.671 247.407 189.369 230.341 167.01 230.341C144.92 230.341 126.994 247.193 126.565 266.816C126.612 270.898 127.442 274.948 129.024 278.811L126.523 267.528C126.523 267.289 126.558 267.054 126.563 266.816C126.563 266.683 126.523 266.558 126.523 266.424" stroke="black" stroke-width="9" stroke-linecap="round" stroke-linejoin="round"/>
<path d="M218.901 204.747C247.927 204.747 271.457 178.421 271.457 145.945C271.457 113.469 247.927 87.1426 218.901 87.1426C189.876 87.1426 166.346 113.469 166.346 145.945C166.346 178.421 189.876 204.747 218.901 204.747Z" stroke="black" stroke-width="9" stroke-miterlimit="10"/>
<path d="M229.778 324.698C231.31 323.633 235.612 319.915 235.645 318.252C236.03 298.817 235.96 266.96 235.96 266.96C234.904 245.753 248.505 227.113 270.688 224.767C292.603 222.451 312.924 237.286 316.304 256.709C316.825 260.766 316.611 264.865 315.669 268.868L316.451 257.413C316.415 257.175 316.345 256.947 316.304 256.711C316.285 256.578 316.304 256.451 316.284 256.318" stroke="black" stroke-width="9" stroke-linecap="round" stroke-linejoin="round"/>
<path d="M315.671 268.866C311.451 291.671 306.654 314.673 303.922 322.337C303.644 323.076 303.657 323.87 303.961 324.602C304.265 325.334 304.843 325.966 305.609 326.403C307.414 327.412 309.07 328.594 310.544 329.926C311.773 331.061 312.606 332.455 312.952 333.958C313.298 335.46 313.144 337.013 312.507 338.448C311.87 339.882 310.774 341.143 309.339 342.095C307.903 343.046 306.183 343.65 304.364 343.842L241.133 343.298C238.048 343.43 234.959 343.109 232.007 342.351" stroke="black" stroke-width="9" stroke-linecap="round" stroke-linejoin="round"/>
</svg>
